<?xml version="1.0" encoding="utf-8"?>
<!-- Generator: Adobe Illustrator 16.0.0, SVG Export Plug-In . SVG Version: 6.00 Build 0)  -->
<!DOCTYPE svg PUBLIC "-//W3C//DTD SVG 1.1//EN" "http://www.w3.org/Graphics/SVG/1.1/DTD/svg11.dtd">
<svg version="1.1" id="Capa_1" xmlns="http://www.w3.org/2000/svg" xmlns:xlink="http://www.w3.org/1999/xlink" x="0px" y="0px"
	 width="848.957px" height="316.484px" viewBox="0 0 848.957 316.484" enable-background="new 0 0 848.957 316.484"
	 xml:space="preserve">
<g>
	<defs>
		<path id="SVGID_1_" d="M315.601,103.404v-0.152c0-15.09,11.374-27.45,27.677-27.45c10.011,0,16.001,3.336,20.93,8.189
			l-7.432,8.569c-4.095-3.716-8.265-5.991-13.574-5.991c-8.948,0-15.392,7.432-15.392,16.532v0.151
			c0,9.1,6.294,16.682,15.392,16.682c6.067,0,9.783-2.426,13.954-6.217l7.43,7.507c-5.459,5.839-11.525,9.479-21.762,9.479
			C327.202,130.703,315.601,118.645,315.601,103.404"/>
	</defs>
	<clipPath id="SVGID_2_">
		<use xlink:href="#SVGID_1_"  overflow="visible"/>
	</clipPath>
	<g clip-path="url(#SVGID_2_)">
		<defs>
			<rect id="SVGID_3_" x="-1029.932" y="-637.97" width="2880" height="8840"/>
		</defs>
		<clipPath id="SVGID_4_">
			<use xlink:href="#SVGID_3_"  overflow="visible"/>
		</clipPath>
		<rect x="305.601" y="65.801" clip-path="url(#SVGID_4_)" fill="#FFFFFF" width="68.985" height="74.901"/>
	</g>
</g>
<g>
	<defs>
		<path id="SVGID_5_" d="M388.769,76.712h24.265c6.749,0,11.981,1.895,15.471,5.384c2.956,2.957,4.549,7.127,4.549,12.132v0.152
			c0,8.569-4.625,13.952-11.374,16.455l12.967,18.957h-13.649l-11.375-16.985h-9.175v16.985h-11.678V76.712z M412.276,102.494
			c5.687,0,8.947-3.034,8.947-7.507v-0.152c0-5.005-3.488-7.583-9.175-7.583h-11.603v15.242H412.276z"/>
	</defs>
	<clipPath id="SVGID_6_">
		<use xlink:href="#SVGID_5_"  overflow="visible"/>
	</clipPath>
	<g clip-path="url(#SVGID_6_)">
		<defs>
			<rect id="SVGID_7_" x="-1029.932" y="-637.97" width="2880" height="8840"/>
		</defs>
		<clipPath id="SVGID_8_">
			<use xlink:href="#SVGID_7_"  overflow="visible"/>
		</clipPath>
		<rect x="378.769" y="66.711" clip-path="url(#SVGID_8_)" fill="#FFFFFF" width="65.876" height="73.081"/>
	</g>
</g>
<g>
	<defs>
		<polyline id="SVGID_9_" points="458.447,76.712 498.485,76.712 498.485,87.1 470.051,87.1 470.051,97.868 495.072,97.868 
			495.072,108.257 470.051,108.257 470.051,119.405 498.864,119.405 498.864,129.792 458.447,129.792 458.447,76.712 		"/>
	</defs>
	<clipPath id="SVGID_10_">
		<use xlink:href="#SVGID_9_"  overflow="visible"/>
	</clipPath>
	<g clip-path="url(#SVGID_10_)">
		<defs>
			<rect id="SVGID_11_" x="-1029.932" y="-637.97" width="2880" height="8840"/>
		</defs>
		<clipPath id="SVGID_12_">
			<use xlink:href="#SVGID_11_"  overflow="visible"/>
		</clipPath>
		<rect x="448.447" y="66.711" clip-path="url(#SVGID_12_)" fill="#FFFFFF" width="60.417" height="73.081"/>
	</g>
</g>
<g>
	<defs>
		<path id="SVGID_13_" d="M542.308,76.332h10.768l22.748,53.46h-12.208l-4.853-11.905h-22.446l-4.854,11.905h-11.904L542.308,76.332
			z M554.592,107.574l-7.052-17.212l-7.053,17.212H554.592z"/>
	</defs>
	<clipPath id="SVGID_14_">
		<use xlink:href="#SVGID_13_"  overflow="visible"/>
	</clipPath>
	<g clip-path="url(#SVGID_14_)">
		<defs>
			<rect id="SVGID_15_" x="-1029.932" y="-637.97" width="2880" height="8840"/>
		</defs>
		<clipPath id="SVGID_16_">
			<use xlink:href="#SVGID_15_"  overflow="visible"/>
		</clipPath>
		<rect x="509.559" y="66.333" clip-path="url(#SVGID_16_)" fill="#FFFFFF" width="76.265" height="73.459"/>
	</g>
</g>
<g>
	<defs>
		<polyline id="SVGID_17_" points="604.397,87.479 588.246,87.479 588.246,76.712 632.228,76.712 632.228,87.479 616.075,87.479 
			616.075,129.792 604.397,129.792 604.397,87.479 		"/>
	</defs>
	<clipPath id="SVGID_18_">
		<use xlink:href="#SVGID_17_"  overflow="visible"/>
	</clipPath>
	<g clip-path="url(#SVGID_18_)">
		<defs>
			<rect id="SVGID_19_" x="-1029.932" y="-637.97" width="2880" height="8840"/>
		</defs>
		<clipPath id="SVGID_20_">
			<use xlink:href="#SVGID_19_"  overflow="visible"/>
		</clipPath>
		<rect x="578.246" y="66.711" clip-path="url(#SVGID_20_)" fill="#FFFFFF" width="63.981" height="73.081"/>
	</g>
</g>
<g>
	<defs>
		<rect id="SVGID_21_" x="656.562" y="76.712" width="11.677" height="53.08"/>
	</defs>
	<clipPath id="SVGID_22_">
		<use xlink:href="#SVGID_21_"  overflow="visible"/>
	</clipPath>
	<g clip-path="url(#SVGID_22_)">
		<defs>
			<rect id="SVGID_23_" x="-1029.932" y="-637.97" width="2880" height="8840"/>
		</defs>
		<clipPath id="SVGID_24_">
			<use xlink:href="#SVGID_23_"  overflow="visible"/>
		</clipPath>
		<rect x="646.562" y="66.711" clip-path="url(#SVGID_24_)" fill="#FFFFFF" width="31.678" height="73.081"/>
	</g>
</g>
<g>
	<defs>
		<polyline id="SVGID_25_" points="691.817,76.712 704.707,76.712 718.585,114.096 732.461,76.712 745.049,76.712 723.59,130.172 
			713.276,130.172 691.817,76.712 		"/>
	</defs>
	<clipPath id="SVGID_26_">
		<use xlink:href="#SVGID_25_"  overflow="visible"/>
	</clipPath>
	<g clip-path="url(#SVGID_26_)">
		<defs>
			<rect id="SVGID_27_" x="-1029.932" y="-637.97" width="2880" height="8840"/>
		</defs>
		<clipPath id="SVGID_28_">
			<use xlink:href="#SVGID_27_"  overflow="visible"/>
		</clipPath>
		<rect x="681.817" y="66.711" clip-path="url(#SVGID_28_)" fill="#FFFFFF" width="73.232" height="73.461"/>
	</g>
</g>
<g>
	<defs>
		<polyline id="SVGID_29_" points="768.093,76.712 808.131,76.712 808.131,87.1 779.695,87.1 779.695,97.868 804.718,97.868 
			804.718,108.257 779.695,108.257 779.695,119.405 808.51,119.405 808.51,129.792 768.093,129.792 768.093,76.712 		"/>
	</defs>
	<clipPath id="SVGID_30_">
		<use xlink:href="#SVGID_29_"  overflow="visible"/>
	</clipPath>
	<g clip-path="url(#SVGID_30_)">
		<defs>
			<rect id="SVGID_31_" x="-1029.932" y="-637.97" width="2880" height="8840"/>
		</defs>
		<clipPath id="SVGID_32_">
			<use xlink:href="#SVGID_31_"  overflow="visible"/>
		</clipPath>
		<rect x="758.093" y="66.711" clip-path="url(#SVGID_32_)" fill="#FFFFFF" width="60.417" height="73.081"/>
	</g>
</g>
<g>
	<defs>
		<polyline id="SVGID_33_" points="334.669,168.716 318.519,168.716 318.519,157.949 362.5,157.949 362.5,168.716 346.348,168.716 
			346.348,211.03 334.669,211.03 334.669,168.716 		"/>
	</defs>
	<clipPath id="SVGID_34_">
		<use xlink:href="#SVGID_33_"  overflow="visible"/>
	</clipPath>
	<g clip-path="url(#SVGID_34_)">
		<defs>
			<rect id="SVGID_35_" x="-1029.932" y="-637.97" width="2880" height="8840"/>
		</defs>
		<clipPath id="SVGID_36_">
			<use xlink:href="#SVGID_35_"  overflow="visible"/>
		</clipPath>
		<rect x="308.519" y="147.949" clip-path="url(#SVGID_36_)" fill="#FFFFFF" width="63.982" height="73.081"/>
	</g>
</g>
<g>
	<defs>
		<polyline id="SVGID_37_" points="386.303,157.949 397.98,157.949 397.98,178.954 419.518,178.954 419.518,157.949 
			431.195,157.949 431.195,211.03 419.518,211.03 419.518,189.722 397.98,189.722 397.98,211.03 386.303,211.03 386.303,157.949 		
			"/>
	</defs>
	<clipPath id="SVGID_38_">
		<use xlink:href="#SVGID_37_"  overflow="visible"/>
	</clipPath>
	<g clip-path="url(#SVGID_38_)">
		<defs>
			<rect id="SVGID_39_" x="-1029.932" y="-637.97" width="2880" height="8840"/>
		</defs>
		<clipPath id="SVGID_40_">
			<use xlink:href="#SVGID_39_"  overflow="visible"/>
		</clipPath>
		<rect x="376.303" y="147.949" clip-path="url(#SVGID_40_)" fill="#FFFFFF" width="64.892" height="73.081"/>
	</g>
</g>
<g>
	<defs>
		<path id="SVGID_41_" d="M458.788,157.949h24.266c6.751,0,11.981,1.896,15.471,5.383c2.956,2.957,4.55,7.129,4.55,12.133v0.153
			c0,8.568-4.627,13.951-11.375,16.454l12.967,18.958h-13.648l-11.376-16.987h-9.175v16.987h-11.679V157.949z M482.297,183.731
			c5.687,0,8.947-3.033,8.947-7.507v-0.152c0-5.006-3.488-7.583-9.176-7.583h-11.602v15.242H482.297z"/>
	</defs>
	<clipPath id="SVGID_42_">
		<use xlink:href="#SVGID_41_"  overflow="visible"/>
	</clipPath>
	<g clip-path="url(#SVGID_42_)">
		<defs>
			<rect id="SVGID_43_" x="-1029.932" y="-637.97" width="2880" height="8840"/>
		</defs>
		<clipPath id="SVGID_44_">
			<use xlink:href="#SVGID_43_"  overflow="visible"/>
		</clipPath>
		<rect x="448.788" y="147.949" clip-path="url(#SVGID_44_)" fill="#FFFFFF" width="65.878" height="73.081"/>
	</g>
</g>
<g>
	<defs>
		<polyline id="SVGID_45_" points="528.468,157.949 568.506,157.949 568.506,168.338 540.07,168.338 540.07,179.105 
			565.095,179.105 565.095,189.494 540.07,189.494 540.07,200.641 568.887,200.641 568.887,211.03 528.468,211.03 528.468,157.949 
					"/>
	</defs>
	<clipPath id="SVGID_46_">
		<use xlink:href="#SVGID_45_"  overflow="visible"/>
	</clipPath>
	<g clip-path="url(#SVGID_46_)">
		<defs>
			<rect id="SVGID_47_" x="-1029.932" y="-637.97" width="2880" height="8840"/>
		</defs>
		<clipPath id="SVGID_48_">
			<use xlink:href="#SVGID_47_"  overflow="visible"/>
		</clipPath>
		<rect x="518.468" y="147.949" clip-path="url(#SVGID_48_)" fill="#FFFFFF" width="60.418" height="73.081"/>
	</g>
</g>
<g>
	<defs>
		<path id="SVGID_49_" d="M612.327,157.57h10.769l22.749,53.46h-12.208l-4.854-11.905h-22.445l-4.854,11.905h-11.905L612.327,157.57
			z M624.613,188.812l-7.053-17.214l-7.053,17.214H624.613z"/>
	</defs>
	<clipPath id="SVGID_50_">
		<use xlink:href="#SVGID_49_"  overflow="visible"/>
	</clipPath>
	<g clip-path="url(#SVGID_50_)">
		<defs>
			<rect id="SVGID_51_" x="-1029.932" y="-637.97" width="2880" height="8840"/>
		</defs>
		<clipPath id="SVGID_52_">
			<use xlink:href="#SVGID_51_"  overflow="visible"/>
		</clipPath>
		<rect x="579.579" y="147.57" clip-path="url(#SVGID_52_)" fill="#FFFFFF" width="76.266" height="73.459"/>
	</g>
</g>
<g>
	<defs>
		<path id="SVGID_53_" d="M668.889,157.949h20.701c16.683,0,28.209,11.45,28.209,26.388v0.153c0,14.938-11.526,26.54-28.209,26.54
			h-20.701V157.949z M689.59,200.488c9.555,0,16-6.445,16-15.846v-0.152c0-9.404-6.445-16.001-16-16.001h-9.023v31.999H689.59z"/>
	</defs>
	<clipPath id="SVGID_54_">
		<use xlink:href="#SVGID_53_"  overflow="visible"/>
	</clipPath>
	<g clip-path="url(#SVGID_54_)">
		<defs>
			<rect id="SVGID_55_" x="-1029.932" y="-637.97" width="2880" height="8840"/>
		</defs>
		<clipPath id="SVGID_56_">
			<use xlink:href="#SVGID_55_"  overflow="visible"/>
		</clipPath>
		<rect x="658.889" y="147.949" clip-path="url(#SVGID_56_)" fill="#FFFFFF" width="68.91" height="73.081"/>
	</g>
</g>
<g>
	<defs>
		<polyline id="SVGID_57_" points="337.798,251.241 337.798,261.155 334.781,261.155 334.781,238.032 348.486,238.032 
			348.486,240.874 337.798,240.874 337.798,248.463 347.438,248.463 347.438,251.241 337.798,251.241 		"/>
	</defs>
	<clipPath id="SVGID_58_">
		<use xlink:href="#SVGID_57_"  overflow="visible"/>
	</clipPath>
	<g clip-path="url(#SVGID_58_)">
		<defs>
			<rect id="SVGID_59_" x="-1029.932" y="-637.97" width="2880" height="8840"/>
		</defs>
		<clipPath id="SVGID_60_">
			<use xlink:href="#SVGID_59_"  overflow="visible"/>
		</clipPath>
		<rect x="324.781" y="228.031" clip-path="url(#SVGID_60_)" fill="#FFFFFF" width="33.706" height="43.124"/>
	</g>
</g>
<g>
	<defs>
		<path id="SVGID_61_" d="M394.228,249.594c0,3.424-1.159,6.286-3.475,8.59c-2.34,2.326-5.203,3.489-8.591,3.489
			c-3.41,0-6.274-1.163-8.591-3.489c-2.317-2.304-3.476-5.166-3.476-8.59s1.159-6.287,3.476-8.591
			c2.317-2.326,5.181-3.488,8.591-3.488c3.41,0,6.273,1.173,8.591,3.521C393.068,243.339,394.228,246.192,394.228,249.594z
			 M373.177,249.594c0,2.67,0.852,4.876,2.557,6.621c1.727,1.743,3.869,2.616,6.427,2.616c2.557,0,4.689-0.873,6.395-2.616
			c1.726-1.723,2.591-3.93,2.591-6.621c0-2.692-0.865-4.898-2.591-6.621c-1.705-1.744-3.837-2.616-6.395-2.616
			c-2.558,0-4.7,0.872-6.427,2.616C374.029,244.716,373.177,246.925,373.177,249.594z"/>
	</defs>
	<clipPath id="SVGID_62_">
		<use xlink:href="#SVGID_61_"  overflow="visible"/>
	</clipPath>
	<g clip-path="url(#SVGID_62_)">
		<defs>
			<rect id="SVGID_63_" x="-1029.932" y="-637.97" width="2880" height="8840"/>
		</defs>
		<clipPath id="SVGID_64_">
			<use xlink:href="#SVGID_63_"  overflow="visible"/>
		</clipPath>
		<rect x="360.094" y="227.515" clip-path="url(#SVGID_64_)" fill="#FFFFFF" width="44.133" height="44.158"/>
	</g>
</g>
<g>
	<defs>
		<path id="SVGID_65_" d="M425.64,261.673c-2.603,0-4.7-0.84-6.295-2.519c-1.598-1.659-2.395-3.854-2.395-6.588v-14.534h3.018
			v14.663c0,1.894,0.502,3.391,1.508,4.488c1.006,1.099,2.393,1.648,4.164,1.648c1.77,0,3.159-0.549,4.164-1.648
			c1.005-1.097,1.509-2.594,1.509-4.488v-14.663h3.016v14.534c0,2.799-0.787,5.015-2.36,6.652
			C430.394,260.854,428.284,261.673,425.64,261.673"/>
	</defs>
	<clipPath id="SVGID_66_">
		<use xlink:href="#SVGID_65_"  overflow="visible"/>
	</clipPath>
	<g clip-path="url(#SVGID_66_)">
		<defs>
			<rect id="SVGID_67_" x="-1029.932" y="-637.97" width="2880" height="8840"/>
		</defs>
		<clipPath id="SVGID_68_">
			<use xlink:href="#SVGID_67_"  overflow="visible"/>
		</clipPath>
		<rect x="406.95" y="228.032" clip-path="url(#SVGID_68_)" fill="#FFFFFF" width="37.378" height="43.641"/>
	</g>
</g>
<g>
	<defs>
		<polyline id="SVGID_69_" points="461.215,261.155 458.198,261.155 458.198,238.032 461.871,238.032 473.281,256.02 
			473.412,256.02 473.281,251.564 473.281,238.032 476.299,238.032 476.299,261.155 473.15,261.155 461.215,242.294 
			461.084,242.294 461.215,246.751 461.215,261.155 		"/>
	</defs>
	<clipPath id="SVGID_70_">
		<use xlink:href="#SVGID_69_"  overflow="visible"/>
	</clipPath>
	<g clip-path="url(#SVGID_70_)">
		<defs>
			<rect id="SVGID_71_" x="-1029.932" y="-637.97" width="2880" height="8840"/>
		</defs>
		<clipPath id="SVGID_72_">
			<use xlink:href="#SVGID_71_"  overflow="visible"/>
		</clipPath>
		<rect x="448.198" y="228.031" clip-path="url(#SVGID_72_)" fill="#FFFFFF" width="38.1" height="43.124"/>
	</g>
</g>
<g>
	<defs>
		<path id="SVGID_73_" d="M500.693,261.155v-23.123h7.18c3.584,0,6.465,1.066,8.64,3.197c2.175,2.132,3.264,4.92,3.264,8.365
			c0,3.467-1.089,6.26-3.264,8.381c-2.175,2.121-5.056,3.18-8.64,3.18H500.693z M503.709,240.874v17.439h4.164
			c2.732,0,4.885-0.769,6.459-2.309c1.575-1.539,2.361-3.675,2.361-6.41c0-2.713-0.786-4.844-2.361-6.395
			c-1.574-1.55-3.727-2.325-6.459-2.325H503.709z"/>
	</defs>
	<clipPath id="SVGID_74_">
		<use xlink:href="#SVGID_73_"  overflow="visible"/>
	</clipPath>
	<g clip-path="url(#SVGID_74_)">
		<defs>
			<rect id="SVGID_75_" x="-1029.932" y="-637.97" width="2880" height="8840"/>
		</defs>
		<clipPath id="SVGID_76_">
			<use xlink:href="#SVGID_75_"  overflow="visible"/>
		</clipPath>
		<rect x="490.693" y="228.031" clip-path="url(#SVGID_76_)" fill="#FFFFFF" width="39.083" height="43.124"/>
	</g>
</g>
<g>
	<defs>
		<path id="SVGID_77_" d="M543.417,261.155h-3.345l8.854-23.123h3.409l8.854,23.123h-3.345l-2.264-6.265h-9.868L543.417,261.155z
			 M550.565,241.681l-3.835,10.432h7.803l-3.837-10.432H550.565z"/>
	</defs>
	<clipPath id="SVGID_78_">
		<use xlink:href="#SVGID_77_"  overflow="visible"/>
	</clipPath>
	<g clip-path="url(#SVGID_78_)">
		<defs>
			<rect id="SVGID_79_" x="-1029.932" y="-637.97" width="2880" height="8840"/>
		</defs>
		<clipPath id="SVGID_80_">
			<use xlink:href="#SVGID_79_"  overflow="visible"/>
		</clipPath>
		<rect x="530.072" y="228.031" clip-path="url(#SVGID_80_)" fill="#FFFFFF" width="41.116" height="43.124"/>
	</g>
</g>
<g>
	<defs>
		<polyline id="SVGID_81_" points="589.484,240.874 589.484,261.155 586.47,261.155 586.47,240.874 579.91,240.874 579.91,238.032 
			596.043,238.032 596.043,240.874 589.484,240.874 		"/>
	</defs>
	<clipPath id="SVGID_82_">
		<use xlink:href="#SVGID_81_"  overflow="visible"/>
	</clipPath>
	<g clip-path="url(#SVGID_82_)">
		<defs>
			<rect id="SVGID_83_" x="-1029.932" y="-637.97" width="2880" height="8840"/>
		</defs>
		<clipPath id="SVGID_84_">
			<use xlink:href="#SVGID_83_"  overflow="visible"/>
		</clipPath>
		<rect x="569.91" y="228.031" clip-path="url(#SVGID_84_)" fill="#FFFFFF" width="36.133" height="43.124"/>
	</g>
</g>
<g>
	<defs>
		<rect id="SVGID_85_" x="618.864" y="238.032" width="3.017" height="23.123"/>
	</defs>
	<clipPath id="SVGID_86_">
		<use xlink:href="#SVGID_85_"  overflow="visible"/>
	</clipPath>
	<g clip-path="url(#SVGID_86_)">
		<defs>
			<rect id="SVGID_87_" x="-1029.932" y="-637.97" width="2880" height="8840"/>
		</defs>
		<clipPath id="SVGID_88_">
			<use xlink:href="#SVGID_87_"  overflow="visible"/>
		</clipPath>
		<rect x="608.864" y="228.031" clip-path="url(#SVGID_88_)" fill="#FFFFFF" width="23.017" height="43.124"/>
	</g>
</g>
<g>
	<defs>
		<path id="SVGID_89_" d="M668.933,249.594c0,3.424-1.157,6.286-3.475,8.59c-2.34,2.326-5.204,3.489-8.592,3.489
			c-3.41,0-6.273-1.163-8.59-3.489c-2.317-2.304-3.475-5.166-3.475-8.59s1.157-6.287,3.475-8.591c2.316-2.326,5.18-3.488,8.59-3.488
			c3.411,0,6.274,1.173,8.592,3.521C667.775,243.339,668.933,246.192,668.933,249.594z M647.883,249.594
			c0,2.67,0.853,4.876,2.559,6.621c1.725,1.743,3.868,2.616,6.425,2.616c2.558,0,4.689-0.873,6.396-2.616
			c1.726-1.723,2.59-3.93,2.59-6.621c0-2.692-0.864-4.898-2.59-6.621c-1.706-1.744-3.838-2.616-6.396-2.616
			c-2.557,0-4.7,0.872-6.425,2.616C648.735,244.716,647.883,246.925,647.883,249.594z"/>
	</defs>
	<clipPath id="SVGID_90_">
		<use xlink:href="#SVGID_89_"  overflow="visible"/>
	</clipPath>
	<g clip-path="url(#SVGID_90_)">
		<defs>
			<rect id="SVGID_91_" x="-1029.932" y="-637.97" width="2880" height="8840"/>
		</defs>
		<clipPath id="SVGID_92_">
			<use xlink:href="#SVGID_91_"  overflow="visible"/>
		</clipPath>
		<rect x="634.802" y="227.515" clip-path="url(#SVGID_92_)" fill="#FFFFFF" width="44.132" height="44.158"/>
	</g>
</g>
<g>
	<defs>
		<polyline id="SVGID_93_" points="695.197,261.155 692.181,261.155 692.181,238.032 695.853,238.032 707.265,256.02 
			707.396,256.02 707.265,251.564 707.265,238.032 710.28,238.032 710.28,261.155 707.131,261.155 695.197,242.294 695.066,242.294 
			695.197,246.751 695.197,261.155 		"/>
	</defs>
	<clipPath id="SVGID_94_">
		<use xlink:href="#SVGID_93_"  overflow="visible"/>
	</clipPath>
	<g clip-path="url(#SVGID_94_)">
		<defs>
			<rect id="SVGID_95_" x="-1029.932" y="-637.97" width="2880" height="8840"/>
		</defs>
		<clipPath id="SVGID_96_">
			<use xlink:href="#SVGID_95_"  overflow="visible"/>
		</clipPath>
		<rect x="682.181" y="228.031" clip-path="url(#SVGID_96_)" fill="#FFFFFF" width="38.1" height="43.124"/>
	</g>
</g>
<g>
	<defs>
		<polyline id="SVGID_97_" points="173.171,291.102 113.705,26.692 117.933,25.741 177.398,290.152 173.171,291.102 		"/>
	</defs>
	<clipPath id="SVGID_98_">
		<use xlink:href="#SVGID_97_"  overflow="visible"/>
	</clipPath>
	<g clip-path="url(#SVGID_98_)">
		<defs>
			<rect id="SVGID_99_" x="-1029.932" y="-637.97" width="2880" height="8840"/>
		</defs>
		<clipPath id="SVGID_100_">
			<use xlink:href="#SVGID_99_"  overflow="visible"/>
		</clipPath>
		<rect x="103.705" y="15.741" clip-path="url(#SVGID_100_)" fill="#2B273C" width="83.692" height="285.361"/>
	</g>
</g>
<g>
	<defs>
		<rect id="SVGID_101_" x="125.308" y="22.938" width="40.489" height="270.902"/>
	</defs>
	<clipPath id="SVGID_102_">
		<use xlink:href="#SVGID_101_"  overflow="visible"/>
	</clipPath>
	<g clip-path="url(#SVGID_102_)">
		<defs>
			<rect id="SVGID_103_" x="-1029.932" y="-637.97" width="2880" height="8840"/>
		</defs>
		<clipPath id="SVGID_104_">
			<use xlink:href="#SVGID_103_"  overflow="visible"/>
		</clipPath>
		<g clip-path="url(#SVGID_104_)" enable-background="new    ">
			<g>
				<defs>
					<rect id="SVGID_105_" x="125.068" y="22.03" width="41" height="272"/>
				</defs>
				<clipPath id="SVGID_106_">
					<use xlink:href="#SVGID_105_"  overflow="visible"/>
				</clipPath>
				<g clip-path="url(#SVGID_106_)">
					<defs>
						<polyline id="SVGID_107_" points="161.502,293.005 125.308,24.417 129.602,23.839 165.796,292.424 161.502,293.005 						"/>
					</defs>
					<clipPath id="SVGID_108_">
						<use xlink:href="#SVGID_107_"  overflow="visible"/>
					</clipPath>
					<g clip-path="url(#SVGID_108_)">
						<defs>
							<rect id="SVGID_109_" x="125.068" y="22.03" width="41" height="272"/>
						</defs>
						<clipPath id="SVGID_110_">
							<use xlink:href="#SVGID_109_"  overflow="visible"/>
						</clipPath>
						<rect x="115.308" y="13.839" clip-path="url(#SVGID_110_)" fill="#B95537" width="60.488" height="289.166"/>
					</g>
				</g>
				<g clip-path="url(#SVGID_106_)">
					<defs>
						<polyline id="SVGID_111_" points="149.712,293.882 137.063,23.163 141.392,22.96 154.041,293.68 149.712,293.882 						"/>
					</defs>
					<clipPath id="SVGID_112_">
						<use xlink:href="#SVGID_111_"  overflow="visible"/>
					</clipPath>
					<g clip-path="url(#SVGID_112_)">
						<defs>
							<rect id="SVGID_113_" x="125.068" y="22.03" width="41" height="272"/>
						</defs>
						<clipPath id="SVGID_114_">
							<use xlink:href="#SVGID_113_"  overflow="visible"/>
						</clipPath>
						<rect x="127.063" y="12.96" clip-path="url(#SVGID_114_)" fill="#AD314D" width="36.978" height="290.921"/>
					</g>
				</g>
				<g clip-path="url(#SVGID_106_)">
					<defs>
						<polyline id="SVGID_115_" points="142.219,293.905 137.89,293.729 148.883,22.938 153.213,23.113 142.219,293.905 						"/>
					</defs>
					<clipPath id="SVGID_116_">
						<use xlink:href="#SVGID_115_"  overflow="visible"/>
					</clipPath>
					<g clip-path="url(#SVGID_116_)">
						<defs>
							<rect id="SVGID_117_" x="125.068" y="22.03" width="41" height="272"/>
						</defs>
						<clipPath id="SVGID_118_">
							<use xlink:href="#SVGID_117_"  overflow="visible"/>
						</clipPath>
						<rect x="127.89" y="12.938" clip-path="url(#SVGID_118_)" fill="#7C5388" width="35.323" height="290.967"/>
					</g>
				</g>
			</g>
		</g>
	</g>
</g>
<g>
	<defs>
		<polyline id="SVGID_119_" points="130.424,293.098 126.126,292.547 160.679,23.744 164.978,24.296 130.424,293.098 		"/>
	</defs>
	<clipPath id="SVGID_120_">
		<use xlink:href="#SVGID_119_"  overflow="visible"/>
	</clipPath>
	<g clip-path="url(#SVGID_120_)">
		<defs>
			<rect id="SVGID_121_" x="-1029.932" y="-637.97" width="2880" height="8840"/>
		</defs>
		<clipPath id="SVGID_122_">
			<use xlink:href="#SVGID_121_"  overflow="visible"/>
		</clipPath>
		<rect x="116.126" y="13.743" clip-path="url(#SVGID_122_)" fill="#883E7B" width="58.851" height="289.355"/>
	</g>
</g>
<g>
	<defs>
		
			<rect id="SVGID_123_" x="10.045" y="156.255" transform="matrix(-0.2135 0.977 -0.977 -0.2135 331.3906 50.0399)" width="271.014" height="4.333"/>
	</defs>
	<clipPath id="SVGID_124_">
		<use xlink:href="#SVGID_123_"  overflow="visible"/>
	</clipPath>
	<g clip-path="url(#SVGID_124_)">
		<defs>
			<rect id="SVGID_125_" x="-1029.932" y="-637.97" width="2880" height="8840"/>
		</defs>
		<clipPath id="SVGID_126_">
			<use xlink:href="#SVGID_125_"  overflow="visible"/>
		</clipPath>
		<rect x="104.51" y="15.574" clip-path="url(#SVGID_126_)" fill="#E5CF46" width="82.083" height="285.692"/>
	</g>
</g>
<g>
	<defs>
		<polyline id="SVGID_127_" points="74.924,274.087 71.263,271.77 216.181,42.755 219.841,45.072 74.924,274.087 		"/>
	</defs>
	<clipPath id="SVGID_128_">
		<use xlink:href="#SVGID_127_"  overflow="visible"/>
	</clipPath>
	<g clip-path="url(#SVGID_128_)">
		<defs>
			<rect id="SVGID_129_" x="-1029.932" y="-637.97" width="2880" height="8840"/>
		</defs>
		<clipPath id="SVGID_130_">
			<use xlink:href="#SVGID_129_"  overflow="visible"/>
		</clipPath>
		<rect x="61.263" y="32.755" clip-path="url(#SVGID_130_)" fill="#2B273C" width="168.578" height="251.332"/>
	</g>
</g>
<g>
	<defs>
		<polyline id="SVGID_131_" points="65.111,267.492 61.667,264.864 225.992,49.351 229.437,51.977 65.111,267.492 		"/>
	</defs>
	<clipPath id="SVGID_132_">
		<use xlink:href="#SVGID_131_"  overflow="visible"/>
	</clipPath>
	<g clip-path="url(#SVGID_132_)">
		<defs>
			<rect id="SVGID_133_" x="-1029.932" y="-637.97" width="2880" height="8840"/>
		</defs>
		<clipPath id="SVGID_134_">
			<use xlink:href="#SVGID_133_"  overflow="visible"/>
		</clipPath>
		<rect x="51.667" y="39.351" clip-path="url(#SVGID_134_)" fill="#B95537" width="187.771" height="238.141"/>
	</g>
</g>
<g>
	<defs>
		<polyline id="SVGID_135_" points="55.911,260.066 52.708,257.149 235.191,56.777 238.395,59.694 55.911,260.066 		"/>
	</defs>
	<clipPath id="SVGID_136_">
		<use xlink:href="#SVGID_135_"  overflow="visible"/>
	</clipPath>
	<g clip-path="url(#SVGID_136_)">
		<defs>
			<rect id="SVGID_137_" x="-1029.932" y="-637.97" width="2880" height="8840"/>
		</defs>
		<clipPath id="SVGID_138_">
			<use xlink:href="#SVGID_137_"  overflow="visible"/>
		</clipPath>
		<rect x="42.708" y="46.777" clip-path="url(#SVGID_138_)" fill="#AD314D" width="205.686" height="223.289"/>
	</g>
</g>
<g>
	<defs>
		<polyline id="SVGID_139_" points="47.395,251.866 44.456,248.681 243.71,64.976 246.647,68.161 47.395,251.866 		"/>
	</defs>
	<clipPath id="SVGID_140_">
		<use xlink:href="#SVGID_139_"  overflow="visible"/>
	</clipPath>
	<g clip-path="url(#SVGID_140_)">
		<defs>
			<rect id="SVGID_141_" x="-1029.932" y="-637.97" width="2880" height="8840"/>
		</defs>
		<clipPath id="SVGID_142_">
			<use xlink:href="#SVGID_141_"  overflow="visible"/>
		</clipPath>
		<rect x="34.456" y="54.976" clip-path="url(#SVGID_142_)" fill="#7C5388" width="222.19" height="206.89"/>
	</g>
</g>
<g>
	<defs>
		<polyline id="SVGID_143_" points="39.624,242.956 36.976,239.526 251.48,73.887 254.128,77.316 39.624,242.956 		"/>
	</defs>
	<clipPath id="SVGID_144_">
		<use xlink:href="#SVGID_143_"  overflow="visible"/>
	</clipPath>
	<g clip-path="url(#SVGID_144_)">
		<defs>
			<rect id="SVGID_145_" x="-1029.932" y="-637.97" width="2880" height="8840"/>
		</defs>
		<clipPath id="SVGID_146_">
			<use xlink:href="#SVGID_145_"  overflow="visible"/>
		</clipPath>
		<rect x="26.976" y="63.886" clip-path="url(#SVGID_146_)" fill="#883E7B" width="237.153" height="189.069"/>
	</g>
</g>
<g>
	<defs>
		<polyline id="SVGID_147_" points="32.657,233.401 30.319,229.754 258.445,83.44 260.783,87.088 32.657,233.401 		"/>
	</defs>
	<clipPath id="SVGID_148_">
		<use xlink:href="#SVGID_147_"  overflow="visible"/>
	</clipPath>
	<g clip-path="url(#SVGID_148_)">
		<defs>
			<rect id="SVGID_149_" x="-1029.932" y="-637.97" width="2880" height="8840"/>
		</defs>
		<clipPath id="SVGID_150_">
			<use xlink:href="#SVGID_149_"  overflow="visible"/>
		</clipPath>
		<rect x="20.319" y="73.439" clip-path="url(#SVGID_150_)" fill="#E5CF46" width="250.464" height="169.961"/>
	</g>
</g>
<g>
	<defs>
		<polyline id="SVGID_151_" points="258.901,232.711 29.886,87.793 32.203,84.132 261.218,229.049 258.901,232.711 		"/>
	</defs>
	<clipPath id="SVGID_152_">
		<use xlink:href="#SVGID_151_"  overflow="visible"/>
	</clipPath>
	<g clip-path="url(#SVGID_152_)">
		<defs>
			<rect id="SVGID_153_" x="-1029.932" y="-637.97" width="2880" height="8840"/>
		</defs>
		<clipPath id="SVGID_154_">
			<use xlink:href="#SVGID_153_"  overflow="visible"/>
		</clipPath>
		<rect x="19.886" y="74.132" clip-path="url(#SVGID_154_)" fill="#2B273C" width="251.332" height="168.579"/>
	</g>
</g>
<g>
	<defs>
		<polyline id="SVGID_155_" points="251.994,242.307 36.481,77.981 39.108,74.535 254.622,238.861 251.994,242.307 		"/>
	</defs>
	<clipPath id="SVGID_156_">
		<use xlink:href="#SVGID_155_"  overflow="visible"/>
	</clipPath>
	<g clip-path="url(#SVGID_156_)">
		<defs>
			<rect id="SVGID_157_" x="-1029.932" y="-637.97" width="2880" height="8840"/>
		</defs>
		<clipPath id="SVGID_158_">
			<use xlink:href="#SVGID_157_"  overflow="visible"/>
		</clipPath>
		<rect x="26.481" y="64.535" clip-path="url(#SVGID_158_)" fill="#B95537" width="238.141" height="187.771"/>
	</g>
</g>
<g>
	<defs>
		<polyline id="SVGID_159_" points="244.279,251.264 43.907,68.781 46.824,65.578 247.196,248.061 244.279,251.264 		"/>
	</defs>
	<clipPath id="SVGID_160_">
		<use xlink:href="#SVGID_159_"  overflow="visible"/>
	</clipPath>
	<g clip-path="url(#SVGID_160_)">
		<defs>
			<rect id="SVGID_161_" x="-1029.932" y="-637.97" width="2880" height="8840"/>
		</defs>
		<clipPath id="SVGID_162_">
			<use xlink:href="#SVGID_161_"  overflow="visible"/>
		</clipPath>
		<rect x="33.907" y="55.578" clip-path="url(#SVGID_162_)" fill="#AD314D" width="223.289" height="205.686"/>
	</g>
</g>
<g>
	<defs>
		<polyline id="SVGID_163_" points="235.813,259.517 52.107,60.263 55.292,57.326 238.996,256.58 235.813,259.517 		"/>
	</defs>
	<clipPath id="SVGID_164_">
		<use xlink:href="#SVGID_163_"  overflow="visible"/>
	</clipPath>
	<g clip-path="url(#SVGID_164_)">
		<defs>
			<rect id="SVGID_165_" x="-1029.932" y="-637.97" width="2880" height="8840"/>
		</defs>
		<clipPath id="SVGID_166_">
			<use xlink:href="#SVGID_165_"  overflow="visible"/>
		</clipPath>
		<rect x="42.107" y="47.326" clip-path="url(#SVGID_166_)" fill="#7C5388" width="206.89" height="222.19"/>
	</g>
</g>
<g>
	<defs>
		<polyline id="SVGID_167_" points="226.656,266.998 61.018,52.492 64.446,49.845 230.086,264.349 226.656,266.998 		"/>
	</defs>
	<clipPath id="SVGID_168_">
		<use xlink:href="#SVGID_167_"  overflow="visible"/>
	</clipPath>
	<g clip-path="url(#SVGID_168_)">
		<defs>
			<rect id="SVGID_169_" x="-1029.932" y="-637.97" width="2880" height="8840"/>
		</defs>
		<clipPath id="SVGID_170_">
			<use xlink:href="#SVGID_169_"  overflow="visible"/>
		</clipPath>
		<rect x="51.018" y="39.844" clip-path="url(#SVGID_170_)" fill="#883E7B" width="189.069" height="237.153"/>
	</g>
</g>
<g>
	<defs>
		<polyline id="SVGID_171_" points="216.885,273.654 70.57,45.527 74.219,43.189 220.532,271.314 216.885,273.654 		"/>
	</defs>
	<clipPath id="SVGID_172_">
		<use xlink:href="#SVGID_171_"  overflow="visible"/>
	</clipPath>
	<g clip-path="url(#SVGID_172_)">
		<defs>
			<rect id="SVGID_173_" x="-1029.932" y="-637.97" width="2880" height="8840"/>
		</defs>
		<clipPath id="SVGID_174_">
			<use xlink:href="#SVGID_173_"  overflow="visible"/>
		</clipPath>
		<rect x="60.57" y="33.188" clip-path="url(#SVGID_174_)" fill="#E5CF46" width="169.961" height="250.465"/>
	</g>
</g>
<g>
	<defs>
		<polyline id="SVGID_175_" points="13.822,190.267 12.871,186.041 277.281,126.574 278.232,130.801 13.822,190.267 		"/>
	</defs>
	<clipPath id="SVGID_176_">
		<use xlink:href="#SVGID_175_"  overflow="visible"/>
	</clipPath>
	<g clip-path="url(#SVGID_176_)">
		<defs>
			<rect id="SVGID_177_" x="-1029.932" y="-637.97" width="2880" height="8840"/>
		</defs>
		<clipPath id="SVGID_178_">
			<use xlink:href="#SVGID_177_"  overflow="visible"/>
		</clipPath>
		<rect x="2.871" y="116.573" clip-path="url(#SVGID_178_)" fill="#2B273C" width="285.361" height="83.693"/>
	</g>
</g>
<g>
	<defs>
		<polyline id="SVGID_179_" points="11.548,178.666 10.969,174.371 279.557,138.177 280.134,142.47 11.548,178.666 		"/>
	</defs>
	<clipPath id="SVGID_180_">
		<use xlink:href="#SVGID_179_"  overflow="visible"/>
	</clipPath>
	<g clip-path="url(#SVGID_180_)">
		<defs>
			<rect id="SVGID_181_" x="-1029.932" y="-637.97" width="2880" height="8840"/>
		</defs>
		<clipPath id="SVGID_182_">
			<use xlink:href="#SVGID_181_"  overflow="visible"/>
		</clipPath>
		<rect x="0.969" y="128.177" clip-path="url(#SVGID_182_)" fill="#B95537" width="289.165" height="60.489"/>
	</g>
</g>
<g>
	<defs>
		<polyline id="SVGID_183_" points="10.292,166.909 10.091,162.581 280.812,149.933 281.012,154.261 10.292,166.909 		"/>
	</defs>
	<clipPath id="SVGID_184_">
		<use xlink:href="#SVGID_183_"  overflow="visible"/>
	</clipPath>
	<g clip-path="url(#SVGID_184_)">
		<defs>
			<rect id="SVGID_185_" x="-1029.932" y="-637.97" width="2880" height="8840"/>
		</defs>
		<clipPath id="SVGID_186_">
			<use xlink:href="#SVGID_185_"  overflow="visible"/>
		</clipPath>
		<rect x="0.091" y="139.932" clip-path="url(#SVGID_186_)" fill="#AD314D" width="290.921" height="36.977"/>
	</g>
</g>
<g>
	<defs>
		<polyline id="SVGID_187_" points="280.86,166.083 10.068,155.088 10.243,150.759 281.035,161.754 280.86,166.083 		"/>
	</defs>
	<clipPath id="SVGID_188_">
		<use xlink:href="#SVGID_187_"  overflow="visible"/>
	</clipPath>
	<g clip-path="url(#SVGID_188_)">
		<defs>
			<rect id="SVGID_189_" x="-1029.932" y="-637.97" width="2880" height="8840"/>
		</defs>
		<clipPath id="SVGID_190_">
			<use xlink:href="#SVGID_189_"  overflow="visible"/>
		</clipPath>
		<rect x="0.068" y="140.759" clip-path="url(#SVGID_190_)" fill="#7C5388" width="290.967" height="35.324"/>
	</g>
</g>
<g>
	<defs>
		<polyline id="SVGID_191_" points="279.677,177.846 10.875,143.294 11.426,138.996 280.229,173.549 279.677,177.846 		"/>
	</defs>
	<clipPath id="SVGID_192_">
		<use xlink:href="#SVGID_191_"  overflow="visible"/>
	</clipPath>
	<g clip-path="url(#SVGID_192_)">
		<defs>
			<rect id="SVGID_193_" x="-1029.932" y="-637.97" width="2880" height="8840"/>
		</defs>
		<clipPath id="SVGID_194_">
			<use xlink:href="#SVGID_193_"  overflow="visible"/>
		</clipPath>
		<rect x="0.875" y="128.996" clip-path="url(#SVGID_194_)" fill="#883E7B" width="289.355" height="58.85"/>
	</g>
</g>
<g>
	<defs>
		<polyline id="SVGID_195_" points="277.475,189.463 12.706,131.613 13.629,127.38 278.399,185.23 277.475,189.463 		"/>
	</defs>
	<clipPath id="SVGID_196_">
		<use xlink:href="#SVGID_195_"  overflow="visible"/>
	</clipPath>
	<g clip-path="url(#SVGID_196_)">
		<defs>
			<rect id="SVGID_197_" x="-1029.932" y="-637.97" width="2880" height="8840"/>
		</defs>
		<clipPath id="SVGID_198_">
			<use xlink:href="#SVGID_197_"  overflow="visible"/>
		</clipPath>
		<rect x="2.706" y="117.38" clip-path="url(#SVGID_198_)" fill="#E5CF46" width="285.693" height="82.083"/>
	</g>
</g>
</svg>
