<?xml version="1.0" encoding="utf-8"?>
<!-- Generator: Adobe Illustrator 16.0.0, SVG Export Plug-In . SVG Version: 6.00 Build 0)  -->
<!DOCTYPE svg PUBLIC "-//W3C//DTD SVG 1.1//EN" "http://www.w3.org/Graphics/SVG/1.1/DTD/svg11.dtd">
<svg version="1.1" id="Capa_1" xmlns="http://www.w3.org/2000/svg" xmlns:xlink="http://www.w3.org/1999/xlink" x="0px" y="0px"
	 width="151.334px" height="60.663px" viewBox="0 0 151.334 60.663" enable-background="new 0 0 151.334 60.663"
	 xml:space="preserve">
<g>
	<defs>
		<path id="SVGID_1_" d="M58.232,21.781v-0.027c0-2.643,1.992-4.807,4.847-4.807c1.753,0,2.802,0.584,3.665,1.434l-1.301,1.501
			c-0.717-0.651-1.448-1.05-2.377-1.05c-1.567,0-2.696,1.302-2.696,2.896v0.026c0,1.594,1.102,2.922,2.696,2.922
			c1.062,0,1.713-0.425,2.443-1.089l1.301,1.314c-0.956,1.023-2.019,1.66-3.811,1.66C60.264,26.562,58.232,24.45,58.232,21.781"/>
	</defs>
	<clipPath id="SVGID_2_">
		<use xlink:href="#SVGID_1_"  overflow="visible"/>
	</clipPath>
	<g clip-path="url(#SVGID_2_)">
		<defs>
			<rect id="SVGID_3_" x="-135.274" y="-908.47" width="1440" height="4420"/>
		</defs>
		<clipPath id="SVGID_4_">
			<use xlink:href="#SVGID_3_"  overflow="visible"/>
		</clipPath>
		<rect x="53.232" y="11.947" clip-path="url(#SVGID_4_)" fill="#181718" width="18.579" height="19.615"/>
	</g>
</g>
<g>
	<defs>
		<path id="SVGID_5_" d="M71.046,17.106h4.25c1.182,0,2.098,0.332,2.708,0.943c0.519,0.518,0.797,1.248,0.797,2.125V20.2
			c0,1.501-0.81,2.444-1.991,2.882l2.271,3.32h-2.391l-1.992-2.975h-1.606v2.975h-2.045V17.106z M75.163,21.621
			c0.995,0,1.566-0.531,1.566-1.313V20.28c0-0.877-0.61-1.328-1.606-1.328h-2.032v2.669H75.163z"/>
	</defs>
	<clipPath id="SVGID_6_">
		<use xlink:href="#SVGID_5_"  overflow="visible"/>
	</clipPath>
	<g clip-path="url(#SVGID_6_)">
		<defs>
			<rect id="SVGID_7_" x="-135.274" y="-908.47" width="1440" height="4420"/>
		</defs>
		<clipPath id="SVGID_8_">
			<use xlink:href="#SVGID_7_"  overflow="visible"/>
		</clipPath>
		<rect x="66.046" y="12.106" clip-path="url(#SVGID_8_)" fill="#181718" width="18.034" height="19.296"/>
	</g>
</g>
<g>
	<defs>
		<polyline id="SVGID_9_" points="83.248,17.106 90.26,17.106 90.26,18.925 85.281,18.925 85.281,20.812 89.662,20.812 
			89.662,22.63 85.281,22.63 85.281,24.583 90.326,24.583 90.326,26.402 83.248,26.402 83.248,17.106 		"/>
	</defs>
	<clipPath id="SVGID_10_">
		<use xlink:href="#SVGID_9_"  overflow="visible"/>
	</clipPath>
	<g clip-path="url(#SVGID_10_)">
		<defs>
			<rect id="SVGID_11_" x="-135.274" y="-908.47" width="1440" height="4420"/>
		</defs>
		<clipPath id="SVGID_12_">
			<use xlink:href="#SVGID_11_"  overflow="visible"/>
		</clipPath>
		<rect x="78.248" y="12.106" clip-path="url(#SVGID_12_)" fill="#181718" width="17.078" height="19.296"/>
	</g>
</g>
<g>
	<defs>
		<path id="SVGID_13_" d="M97.935,17.04h1.886l3.984,9.362h-2.139l-0.85-2.085h-3.932l-0.85,2.085h-2.084L97.935,17.04z
			 M100.086,22.511l-1.234-3.014l-1.236,3.014H100.086z"/>
	</defs>
	<clipPath id="SVGID_14_">
		<use xlink:href="#SVGID_13_"  overflow="visible"/>
	</clipPath>
	<g clip-path="url(#SVGID_14_)">
		<defs>
			<rect id="SVGID_15_" x="-135.274" y="-908.47" width="1440" height="4420"/>
		</defs>
		<clipPath id="SVGID_16_">
			<use xlink:href="#SVGID_15_"  overflow="visible"/>
		</clipPath>
		<rect x="88.951" y="12.04" clip-path="url(#SVGID_16_)" fill="#181718" width="19.854" height="19.362"/>
	</g>
</g>
<g>
	<defs>
		<polyline id="SVGID_17_" points="108.809,18.992 105.979,18.992 105.979,17.106 113.682,17.106 113.682,18.992 110.854,18.992 
			110.854,26.402 108.809,26.402 108.809,18.992 		"/>
	</defs>
	<clipPath id="SVGID_18_">
		<use xlink:href="#SVGID_17_"  overflow="visible"/>
	</clipPath>
	<g clip-path="url(#SVGID_18_)">
		<defs>
			<rect id="SVGID_19_" x="-135.274" y="-908.47" width="1440" height="4420"/>
		</defs>
		<clipPath id="SVGID_20_">
			<use xlink:href="#SVGID_19_"  overflow="visible"/>
		</clipPath>
		<rect x="100.979" y="12.106" clip-path="url(#SVGID_20_)" fill="#181718" width="17.702" height="19.296"/>
	</g>
</g>
<g>
	<defs>
		<rect id="SVGID_21_" x="117.943" y="17.106" width="2.045" height="9.296"/>
	</defs>
	<clipPath id="SVGID_22_">
		<use xlink:href="#SVGID_21_"  overflow="visible"/>
	</clipPath>
	<g clip-path="url(#SVGID_22_)">
		<defs>
			<rect id="SVGID_23_" x="-135.274" y="-908.47" width="1440" height="4420"/>
		</defs>
		<clipPath id="SVGID_24_">
			<use xlink:href="#SVGID_23_"  overflow="visible"/>
		</clipPath>
		<rect x="112.943" y="12.106" clip-path="url(#SVGID_24_)" fill="#181718" width="12.045" height="19.296"/>
	</g>
</g>
<g>
	<defs>
		<polyline id="SVGID_25_" points="124.117,17.106 126.375,17.106 128.805,23.653 131.235,17.106 133.439,17.106 129.682,26.468 
			127.875,26.468 124.117,17.106 		"/>
	</defs>
	<clipPath id="SVGID_26_">
		<use xlink:href="#SVGID_25_"  overflow="visible"/>
	</clipPath>
	<g clip-path="url(#SVGID_26_)">
		<defs>
			<rect id="SVGID_27_" x="-135.274" y="-908.47" width="1440" height="4420"/>
		</defs>
		<clipPath id="SVGID_28_">
			<use xlink:href="#SVGID_27_"  overflow="visible"/>
		</clipPath>
		<rect x="119.117" y="12.106" clip-path="url(#SVGID_28_)" fill="#181718" width="19.322" height="19.362"/>
	</g>
</g>
<g>
	<defs>
		<polyline id="SVGID_29_" points="137.475,17.106 144.486,17.106 144.486,18.925 139.508,18.925 139.508,20.812 143.889,20.812 
			143.889,22.63 139.508,22.63 139.508,24.583 144.553,24.583 144.553,26.402 137.475,26.402 137.475,17.106 		"/>
	</defs>
	<clipPath id="SVGID_30_">
		<use xlink:href="#SVGID_29_"  overflow="visible"/>
	</clipPath>
	<g clip-path="url(#SVGID_30_)">
		<defs>
			<rect id="SVGID_31_" x="-135.274" y="-908.47" width="1440" height="4420"/>
		</defs>
		<clipPath id="SVGID_32_">
			<use xlink:href="#SVGID_31_"  overflow="visible"/>
		</clipPath>
		<rect x="132.475" y="12.106" clip-path="url(#SVGID_32_)" fill="#181718" width="17.078" height="19.296"/>
	</g>
</g>
<g>
	<defs>
		<polyline id="SVGID_33_" points="61.572,33.218 58.744,33.218 58.744,31.333 66.446,31.333 66.446,33.218 63.617,33.218 
			63.617,40.629 61.572,40.629 61.572,33.218 		"/>
	</defs>
	<clipPath id="SVGID_34_">
		<use xlink:href="#SVGID_33_"  overflow="visible"/>
	</clipPath>
	<g clip-path="url(#SVGID_34_)">
		<defs>
			<rect id="SVGID_35_" x="-135.274" y="-908.47" width="1440" height="4420"/>
		</defs>
		<clipPath id="SVGID_36_">
			<use xlink:href="#SVGID_35_"  overflow="visible"/>
		</clipPath>
		<rect x="53.744" y="26.334" clip-path="url(#SVGID_36_)" fill="#181718" width="17.702" height="19.295"/>
	</g>
</g>
<g>
	<defs>
		<polyline id="SVGID_37_" points="70.614,31.333 72.659,31.333 72.659,35.011 76.432,35.011 76.432,31.333 78.477,31.333 
			78.477,40.629 76.432,40.629 76.432,36.897 72.659,36.897 72.659,40.629 70.614,40.629 70.614,31.333 		"/>
	</defs>
	<clipPath id="SVGID_38_">
		<use xlink:href="#SVGID_37_"  overflow="visible"/>
	</clipPath>
	<g clip-path="url(#SVGID_38_)">
		<defs>
			<rect id="SVGID_39_" x="-135.274" y="-908.47" width="1440" height="4420"/>
		</defs>
		<clipPath id="SVGID_40_">
			<use xlink:href="#SVGID_39_"  overflow="visible"/>
		</clipPath>
		<rect x="65.614" y="26.334" clip-path="url(#SVGID_40_)" fill="#181718" width="17.862" height="19.295"/>
	</g>
</g>
<g>
	<defs>
		<path id="SVGID_41_" d="M83.309,31.333h4.249c1.183,0,2.099,0.332,2.71,0.943c0.518,0.517,0.797,1.248,0.797,2.124v0.027
			c0,1.501-0.811,2.443-1.992,2.882l2.271,3.32h-2.391l-1.991-2.975h-1.607v2.975h-2.045V31.333z M87.426,35.849
			c0.995,0,1.566-0.531,1.566-1.315v-0.026c0-0.877-0.611-1.328-1.607-1.328h-2.031v2.669H87.426z"/>
	</defs>
	<clipPath id="SVGID_42_">
		<use xlink:href="#SVGID_41_"  overflow="visible"/>
	</clipPath>
	<g clip-path="url(#SVGID_42_)">
		<defs>
			<rect id="SVGID_43_" x="-135.274" y="-908.47" width="1440" height="4420"/>
		</defs>
		<clipPath id="SVGID_44_">
			<use xlink:href="#SVGID_43_"  overflow="visible"/>
		</clipPath>
		<rect x="78.309" y="26.334" clip-path="url(#SVGID_44_)" fill="#181718" width="18.034" height="19.295"/>
	</g>
</g>
<g>
	<defs>
		<polygon id="SVGID_45_" points="102.522,31.333 102.522,33.152 97.543,33.152 97.543,35.038 101.926,35.038 101.926,36.857 
			97.543,36.857 97.543,38.81 102.59,38.81 102.59,40.629 95.511,40.629 95.511,31.333 		"/>
	</defs>
	<clipPath id="SVGID_46_">
		<use xlink:href="#SVGID_45_"  overflow="visible"/>
	</clipPath>
	<g clip-path="url(#SVGID_46_)">
		<defs>
			<rect id="SVGID_47_" x="-135.274" y="-908.47" width="1440" height="4420"/>
		</defs>
		<clipPath id="SVGID_48_">
			<use xlink:href="#SVGID_47_"  overflow="visible"/>
		</clipPath>
		<rect x="90.511" y="26.334" clip-path="url(#SVGID_48_)" fill="#181718" width="17.079" height="19.295"/>
	</g>
</g>
<g>
	<defs>
		<path id="SVGID_49_" d="M110.197,31.267h1.885l3.984,9.363h-2.138l-0.851-2.085h-3.93l-0.851,2.085h-2.085L110.197,31.267z
			 M112.348,36.738l-1.234-3.015l-1.234,3.015H112.348z"/>
	</defs>
	<clipPath id="SVGID_50_">
		<use xlink:href="#SVGID_49_"  overflow="visible"/>
	</clipPath>
	<g clip-path="url(#SVGID_50_)">
		<defs>
			<rect id="SVGID_51_" x="-135.274" y="-908.47" width="1440" height="4420"/>
		</defs>
		<clipPath id="SVGID_52_">
			<use xlink:href="#SVGID_51_"  overflow="visible"/>
		</clipPath>
		<rect x="101.213" y="26.268" clip-path="url(#SVGID_52_)" fill="#181718" width="19.854" height="19.362"/>
	</g>
</g>
<g>
	<defs>
		<path id="SVGID_53_" d="M120.102,31.333h3.626c2.921,0,4.94,2.005,4.94,4.621v0.027c0,2.616-2.02,4.648-4.94,4.648h-3.626V31.333z
			 M123.728,38.783c1.673,0,2.802-1.129,2.802-2.776v-0.026c0-1.647-1.129-2.802-2.802-2.802h-1.581v5.604H123.728z"/>
	</defs>
	<clipPath id="SVGID_54_">
		<use xlink:href="#SVGID_53_"  overflow="visible"/>
	</clipPath>
	<g clip-path="url(#SVGID_54_)">
		<defs>
			<rect id="SVGID_55_" x="-135.274" y="-908.47" width="1440" height="4420"/>
		</defs>
		<clipPath id="SVGID_56_">
			<use xlink:href="#SVGID_55_"  overflow="visible"/>
		</clipPath>
		<rect x="115.102" y="26.334" clip-path="url(#SVGID_56_)" fill="#181718" width="18.566" height="19.295"/>
	</g>
</g>
<g>
	<defs>
		<polyline id="SVGID_57_" points="62.12,47.671 62.12,49.407 61.591,49.407 61.591,45.357 63.992,45.357 63.992,45.855 
			62.12,45.855 62.12,47.185 63.808,47.185 63.808,47.671 62.12,47.671 		"/>
	</defs>
	<clipPath id="SVGID_58_">
		<use xlink:href="#SVGID_57_"  overflow="visible"/>
	</clipPath>
	<g clip-path="url(#SVGID_58_)">
		<defs>
			<rect id="SVGID_59_" x="-135.274" y="-908.47" width="1440" height="4420"/>
		</defs>
		<clipPath id="SVGID_60_">
			<use xlink:href="#SVGID_59_"  overflow="visible"/>
		</clipPath>
		<rect x="56.591" y="40.357" clip-path="url(#SVGID_60_)" fill="#181718" width="12.4" height="14.05"/>
	</g>
</g>
<g>
	<defs>
		<path id="SVGID_61_" d="M72.002,47.382c0,0.6-0.203,1.101-0.608,1.505c-0.41,0.407-0.911,0.611-1.505,0.611
			c-0.597,0-1.099-0.204-1.504-0.611c-0.405-0.404-0.608-0.905-0.608-1.505c0-0.599,0.203-1.101,0.608-1.504
			c0.406-0.408,0.908-0.61,1.504-0.61c0.597,0,1.099,0.205,1.505,0.616C71.799,46.287,72.002,46.787,72.002,47.382z M68.316,47.382
			c0,0.468,0.149,0.854,0.448,1.16C69.066,48.847,69.441,49,69.889,49c0.448,0,0.821-0.153,1.12-0.458
			c0.302-0.302,0.454-0.688,0.454-1.16c0-0.471-0.151-0.858-0.454-1.159c-0.299-0.307-0.672-0.458-1.12-0.458
			c-0.448,0-0.823,0.151-1.125,0.458C68.465,46.528,68.316,46.915,68.316,47.382z"/>
	</defs>
	<clipPath id="SVGID_62_">
		<use xlink:href="#SVGID_61_"  overflow="visible"/>
	</clipPath>
	<g clip-path="url(#SVGID_62_)">
		<defs>
			<rect id="SVGID_63_" x="-135.274" y="-908.47" width="1440" height="4420"/>
		</defs>
		<clipPath id="SVGID_64_">
			<use xlink:href="#SVGID_63_"  overflow="visible"/>
		</clipPath>
		<rect x="62.776" y="40.268" clip-path="url(#SVGID_64_)" fill="#181718" width="14.226" height="14.23"/>
	</g>
</g>
<g>
	<defs>
		<path id="SVGID_65_" d="M77.503,49.498c-0.456,0-0.823-0.147-1.103-0.442c-0.279-0.29-0.419-0.675-0.419-1.153v-2.546h0.528v2.568
			c0,0.332,0.088,0.594,0.264,0.786C76.95,48.904,77.193,49,77.503,49s0.554-0.096,0.729-0.289c0.176-0.191,0.264-0.454,0.264-0.786
			v-2.568h0.529v2.546c0,0.49-0.139,0.878-0.414,1.165C78.336,49.354,77.967,49.498,77.503,49.498"/>
	</defs>
	<clipPath id="SVGID_66_">
		<use xlink:href="#SVGID_65_"  overflow="visible"/>
	</clipPath>
	<g clip-path="url(#SVGID_66_)">
		<defs>
			<rect id="SVGID_67_" x="-135.274" y="-908.47" width="1440" height="4420"/>
		</defs>
		<clipPath id="SVGID_68_">
			<use xlink:href="#SVGID_67_"  overflow="visible"/>
		</clipPath>
		<rect x="70.981" y="40.358" clip-path="url(#SVGID_68_)" fill="#181718" width="13.044" height="14.14"/>
	</g>
</g>
<g>
	<defs>
		<polyline id="SVGID_69_" points="83.733,49.407 83.205,49.407 83.205,45.357 83.848,45.357 85.846,48.508 85.869,48.508 
			85.846,47.728 85.846,45.357 86.375,45.357 86.375,49.407 85.823,49.407 83.733,46.104 83.711,46.104 83.733,46.884 
			83.733,49.407 		"/>
	</defs>
	<clipPath id="SVGID_70_">
		<use xlink:href="#SVGID_69_"  overflow="visible"/>
	</clipPath>
	<g clip-path="url(#SVGID_70_)">
		<defs>
			<rect id="SVGID_71_" x="-135.274" y="-908.47" width="1440" height="4420"/>
		</defs>
		<clipPath id="SVGID_72_">
			<use xlink:href="#SVGID_71_"  overflow="visible"/>
		</clipPath>
		<rect x="78.205" y="40.357" clip-path="url(#SVGID_72_)" fill="#181718" width="13.17" height="14.05"/>
	</g>
</g>
<g>
	<defs>
		<path id="SVGID_73_" d="M90.646,49.407v-4.05h1.258c0.627,0,1.133,0.187,1.514,0.56c0.381,0.374,0.57,0.862,0.57,1.465
			c0,0.607-0.189,1.097-0.57,1.468c-0.381,0.371-0.887,0.557-1.514,0.557H90.646z M91.176,45.855v3.054h0.729
			c0.479,0,0.855-0.135,1.131-0.404c0.275-0.27,0.414-0.644,0.414-1.123c0-0.475-0.139-0.848-0.414-1.12
			c-0.275-0.271-0.652-0.407-1.131-0.407H91.176z"/>
	</defs>
	<clipPath id="SVGID_74_">
		<use xlink:href="#SVGID_73_"  overflow="visible"/>
	</clipPath>
	<g clip-path="url(#SVGID_74_)">
		<defs>
			<rect id="SVGID_75_" x="-135.274" y="-908.47" width="1440" height="4420"/>
		</defs>
		<clipPath id="SVGID_76_">
			<use xlink:href="#SVGID_75_"  overflow="visible"/>
		</clipPath>
		<rect x="85.646" y="40.357" clip-path="url(#SVGID_76_)" fill="#181718" width="13.342" height="14.05"/>
	</g>
</g>
<g>
	<defs>
		<path id="SVGID_77_" d="M98.129,49.407h-0.586l1.551-4.05h0.598l1.55,4.05h-0.586l-0.396-1.097h-1.729L98.129,49.407z
			 M99.381,45.996l-0.672,1.827h1.367l-0.672-1.827H99.381z"/>
	</defs>
	<clipPath id="SVGID_78_">
		<use xlink:href="#SVGID_77_"  overflow="visible"/>
	</clipPath>
	<g clip-path="url(#SVGID_78_)">
		<defs>
			<rect id="SVGID_79_" x="-135.274" y="-908.47" width="1440" height="4420"/>
		</defs>
		<clipPath id="SVGID_80_">
			<use xlink:href="#SVGID_79_"  overflow="visible"/>
		</clipPath>
		<rect x="92.543" y="40.357" clip-path="url(#SVGID_80_)" fill="#181718" width="13.698" height="14.05"/>
	</g>
</g>
<g>
	<defs>
		<polyline id="SVGID_81_" points="106.196,45.855 106.196,49.407 105.668,49.407 105.668,45.855 104.52,45.855 104.52,45.357 
			107.346,45.357 107.346,45.855 106.196,45.855 		"/>
	</defs>
	<clipPath id="SVGID_82_">
		<use xlink:href="#SVGID_81_"  overflow="visible"/>
	</clipPath>
	<g clip-path="url(#SVGID_82_)">
		<defs>
			<rect id="SVGID_83_" x="-135.274" y="-908.47" width="1440" height="4420"/>
		</defs>
		<clipPath id="SVGID_84_">
			<use xlink:href="#SVGID_83_"  overflow="visible"/>
		</clipPath>
		<rect x="99.52" y="40.357" clip-path="url(#SVGID_84_)" fill="#181718" width="12.826" height="14.05"/>
	</g>
</g>
<g>
	<defs>
		<rect id="SVGID_85_" x="111.342" y="45.357" width="0.528" height="4.05"/>
	</defs>
	<clipPath id="SVGID_86_">
		<use xlink:href="#SVGID_85_"  overflow="visible"/>
	</clipPath>
	<g clip-path="url(#SVGID_86_)">
		<defs>
			<rect id="SVGID_87_" x="-135.274" y="-908.47" width="1440" height="4420"/>
		</defs>
		<clipPath id="SVGID_88_">
			<use xlink:href="#SVGID_87_"  overflow="visible"/>
		</clipPath>
		<rect x="106.342" y="40.357" clip-path="url(#SVGID_88_)" fill="#181718" width="10.528" height="14.05"/>
	</g>
</g>
<g>
	<defs>
		<path id="SVGID_89_" d="M120.109,47.382c0,0.6-0.202,1.101-0.607,1.505c-0.41,0.407-0.912,0.611-1.506,0.611
			c-0.597,0-1.098-0.204-1.504-0.611c-0.406-0.404-0.608-0.905-0.608-1.505c0-0.599,0.202-1.101,0.608-1.504
			c0.406-0.408,0.907-0.61,1.504-0.61c0.598,0,1.1,0.205,1.506,0.616C119.907,46.287,120.109,46.787,120.109,47.382z
			 M116.424,47.382c0,0.468,0.148,0.854,0.447,1.16c0.303,0.305,0.678,0.458,1.125,0.458c0.449,0,0.822-0.153,1.121-0.458
			c0.302-0.302,0.453-0.688,0.453-1.16c0-0.471-0.151-0.858-0.453-1.159c-0.299-0.307-0.672-0.458-1.121-0.458
			c-0.447,0-0.822,0.151-1.125,0.458C116.572,46.528,116.424,46.915,116.424,47.382z"/>
	</defs>
	<clipPath id="SVGID_90_">
		<use xlink:href="#SVGID_89_"  overflow="visible"/>
	</clipPath>
	<g clip-path="url(#SVGID_90_)">
		<defs>
			<rect id="SVGID_91_" x="-135.274" y="-908.47" width="1440" height="4420"/>
		</defs>
		<clipPath id="SVGID_92_">
			<use xlink:href="#SVGID_91_"  overflow="visible"/>
		</clipPath>
		<rect x="110.884" y="40.268" clip-path="url(#SVGID_92_)" fill="#181718" width="14.226" height="14.23"/>
	</g>
</g>
<g>
	<defs>
		<polyline id="SVGID_93_" points="124.709,49.407 124.182,49.407 124.182,45.357 124.824,45.357 126.822,48.508 126.846,48.508 
			126.822,47.728 126.822,45.357 127.352,45.357 127.352,49.407 126.799,49.407 124.709,46.104 124.687,46.104 124.709,46.884 
			124.709,49.407 		"/>
	</defs>
	<clipPath id="SVGID_94_">
		<use xlink:href="#SVGID_93_"  overflow="visible"/>
	</clipPath>
	<g clip-path="url(#SVGID_94_)">
		<defs>
			<rect id="SVGID_95_" x="-135.274" y="-908.47" width="1440" height="4420"/>
		</defs>
		<clipPath id="SVGID_96_">
			<use xlink:href="#SVGID_95_"  overflow="visible"/>
		</clipPath>
		<rect x="119.182" y="40.357" clip-path="url(#SVGID_96_)" fill="#181718" width="13.17" height="14.05"/>
	</g>
</g>
<g>
	<defs>
		<polyline id="SVGID_97_" points="33.29,54.651 22.875,8.346 23.616,8.18 34.03,54.485 33.29,54.651 		"/>
	</defs>
	<clipPath id="SVGID_98_">
		<use xlink:href="#SVGID_97_"  overflow="visible"/>
	</clipPath>
	<g clip-path="url(#SVGID_98_)">
		<defs>
			<rect id="SVGID_99_" x="-135.274" y="-908.47" width="1440" height="4420"/>
		</defs>
		<clipPath id="SVGID_100_">
			<use xlink:href="#SVGID_99_"  overflow="visible"/>
		</clipPath>
		<rect x="17.875" y="3.18" clip-path="url(#SVGID_100_)" fill="#2B273C" width="21.154" height="56.472"/>
	</g>
</g>
<g>
	<defs>
		<rect id="SVGID_101_" x="24.907" y="7.689" width="7.091" height="47.442"/>
	</defs>
	<clipPath id="SVGID_102_">
		<use xlink:href="#SVGID_101_"  overflow="visible"/>
	</clipPath>
	<g clip-path="url(#SVGID_102_)">
		<defs>
			<rect id="SVGID_103_" x="-135.274" y="-908.47" width="1440" height="4420"/>
		</defs>
		<clipPath id="SVGID_104_">
			<use xlink:href="#SVGID_103_"  overflow="visible"/>
		</clipPath>
		<g clip-path="url(#SVGID_104_)" enable-background="new    ">
			<g>
				<defs>
					<rect id="SVGID_105_" x="24.726" y="7.53" width="8" height="48"/>
				</defs>
				<clipPath id="SVGID_106_">
					<use xlink:href="#SVGID_105_"  overflow="visible"/>
				</clipPath>
				<g clip-path="url(#SVGID_106_)">
					<defs>
						<polyline id="SVGID_107_" points="31.246,54.985 24.907,7.948 25.659,7.847 31.998,54.883 31.246,54.985 						"/>
					</defs>
					<clipPath id="SVGID_108_">
						<use xlink:href="#SVGID_107_"  overflow="visible"/>
					</clipPath>
					<g clip-path="url(#SVGID_108_)">
						<defs>
							<rect id="SVGID_109_" x="24.726" y="7.53" width="8" height="48"/>
						</defs>
						<clipPath id="SVGID_110_">
							<use xlink:href="#SVGID_109_"  overflow="visible"/>
						</clipPath>
						<rect x="19.907" y="2.848" clip-path="url(#SVGID_110_)" fill="#B95537" width="17.091" height="57.138"/>
					</g>
				</g>
				<g clip-path="url(#SVGID_106_)">
					<defs>
						<polyline id="SVGID_111_" points="29.181,55.138 26.966,7.729 27.724,7.693 29.939,55.104 29.181,55.138 						"/>
					</defs>
					<clipPath id="SVGID_112_">
						<use xlink:href="#SVGID_111_"  overflow="visible"/>
					</clipPath>
					<g clip-path="url(#SVGID_112_)">
						<defs>
							<rect id="SVGID_113_" x="24.726" y="7.53" width="8" height="48"/>
						</defs>
						<clipPath id="SVGID_114_">
							<use xlink:href="#SVGID_113_"  overflow="visible"/>
						</clipPath>
						<rect x="21.966" y="2.693" clip-path="url(#SVGID_114_)" fill="#AD314D" width="12.973" height="57.445"/>
					</g>
				</g>
				<g clip-path="url(#SVGID_106_)">
					<defs>
						<polyline id="SVGID_115_" points="27.869,55.143 27.111,55.111 29.036,7.689 29.794,7.72 27.869,55.143 						"/>
					</defs>
					<clipPath id="SVGID_116_">
						<use xlink:href="#SVGID_115_"  overflow="visible"/>
					</clipPath>
					<g clip-path="url(#SVGID_116_)">
						<defs>
							<rect id="SVGID_117_" x="24.726" y="7.53" width="8" height="48"/>
						</defs>
						<clipPath id="SVGID_118_">
							<use xlink:href="#SVGID_117_"  overflow="visible"/>
						</clipPath>
						<rect x="22.111" y="2.689" clip-path="url(#SVGID_118_)" fill="#7C5388" width="12.684" height="57.453"/>
					</g>
				</g>
			</g>
		</g>
	</g>
</g>
<g>
	<defs>
		<polyline id="SVGID_119_" points="25.803,55.001 25.051,54.904 31.102,7.83 31.854,7.927 25.803,55.001 		"/>
	</defs>
	<clipPath id="SVGID_120_">
		<use xlink:href="#SVGID_119_"  overflow="visible"/>
	</clipPath>
	<g clip-path="url(#SVGID_120_)">
		<defs>
			<rect id="SVGID_121_" x="-135.274" y="-908.47" width="1440" height="4420"/>
		</defs>
		<clipPath id="SVGID_122_">
			<use xlink:href="#SVGID_121_"  overflow="visible"/>
		</clipPath>
		<rect x="20.051" y="2.831" clip-path="url(#SVGID_122_)" fill="#883E7B" width="16.804" height="57.17"/>
	</g>
</g>
<g>
	<defs>
		<polyline id="SVGID_123_" points="23.758,54.68 23.017,54.519 33.147,8.151 33.889,8.313 23.758,54.68 		"/>
	</defs>
	<clipPath id="SVGID_124_">
		<use xlink:href="#SVGID_123_"  overflow="visible"/>
	</clipPath>
	<g clip-path="url(#SVGID_124_)">
		<defs>
			<rect id="SVGID_125_" x="-135.274" y="-908.47" width="1440" height="4420"/>
		</defs>
		<clipPath id="SVGID_126_">
			<use xlink:href="#SVGID_125_"  overflow="visible"/>
		</clipPath>
		<rect x="18.017" y="3.151" clip-path="url(#SVGID_126_)" fill="#E5CF46" width="20.872" height="56.529"/>
	</g>
</g>
<g>
	<defs>
		<polyline id="SVGID_127_" points="16.084,51.672 15.443,51.267 40.821,11.16 41.462,11.565 16.084,51.672 		"/>
	</defs>
	<clipPath id="SVGID_128_">
		<use xlink:href="#SVGID_127_"  overflow="visible"/>
	</clipPath>
	<g clip-path="url(#SVGID_128_)">
		<defs>
			<rect id="SVGID_129_" x="-135.274" y="-908.47" width="1440" height="4420"/>
		</defs>
		<clipPath id="SVGID_130_">
			<use xlink:href="#SVGID_129_"  overflow="visible"/>
		</clipPath>
		<rect x="10.443" y="6.16" clip-path="url(#SVGID_130_)" fill="#2B273C" width="36.02" height="50.512"/>
	</g>
</g>
<g>
	<defs>
		<polyline id="SVGID_131_" points="14.366,50.518 13.762,50.056 42.54,12.315 43.143,12.775 14.366,50.518 		"/>
	</defs>
	<clipPath id="SVGID_132_">
		<use xlink:href="#SVGID_131_"  overflow="visible"/>
	</clipPath>
	<g clip-path="url(#SVGID_132_)">
		<defs>
			<rect id="SVGID_133_" x="-135.274" y="-908.47" width="1440" height="4420"/>
		</defs>
		<clipPath id="SVGID_134_">
			<use xlink:href="#SVGID_133_"  overflow="visible"/>
		</clipPath>
		<rect x="8.762" y="7.315" clip-path="url(#SVGID_134_)" fill="#B95537" width="39.381" height="48.202"/>
	</g>
</g>
<g>
	<defs>
		<polyline id="SVGID_135_" points="12.754,49.216 12.193,48.705 44.151,13.615 44.712,14.126 12.754,49.216 		"/>
	</defs>
	<clipPath id="SVGID_136_">
		<use xlink:href="#SVGID_135_"  overflow="visible"/>
	</clipPath>
	<g clip-path="url(#SVGID_136_)">
		<defs>
			<rect id="SVGID_137_" x="-135.274" y="-908.47" width="1440" height="4420"/>
		</defs>
		<clipPath id="SVGID_138_">
			<use xlink:href="#SVGID_137_"  overflow="visible"/>
		</clipPath>
		<rect x="7.193" y="8.615" clip-path="url(#SVGID_138_)" fill="#AD314D" width="42.519" height="45.601"/>
	</g>
</g>
<g>
	<defs>
		<polyline id="SVGID_139_" points="11.263,47.78 10.749,47.222 45.643,15.051 46.157,15.609 11.263,47.78 		"/>
	</defs>
	<clipPath id="SVGID_140_">
		<use xlink:href="#SVGID_139_"  overflow="visible"/>
	</clipPath>
	<g clip-path="url(#SVGID_140_)">
		<defs>
			<rect id="SVGID_141_" x="-135.274" y="-908.47" width="1440" height="4420"/>
		</defs>
		<clipPath id="SVGID_142_">
			<use xlink:href="#SVGID_141_"  overflow="visible"/>
		</clipPath>
		<rect x="5.749" y="10.051" clip-path="url(#SVGID_142_)" fill="#7C5388" width="45.409" height="42.729"/>
	</g>
</g>
<g>
	<defs>
		<polyline id="SVGID_143_" points="9.902,46.22 9.438,45.619 47.003,16.611 47.467,17.212 9.902,46.22 		"/>
	</defs>
	<clipPath id="SVGID_144_">
		<use xlink:href="#SVGID_143_"  overflow="visible"/>
	</clipPath>
	<g clip-path="url(#SVGID_144_)">
		<defs>
			<rect id="SVGID_145_" x="-135.274" y="-908.47" width="1440" height="4420"/>
		</defs>
		<clipPath id="SVGID_146_">
			<use xlink:href="#SVGID_145_"  overflow="visible"/>
		</clipPath>
		<rect x="4.438" y="11.612" clip-path="url(#SVGID_146_)" fill="#883E7B" width="48.029" height="39.608"/>
	</g>
</g>
<g>
	<defs>
		<polyline id="SVGID_147_" points="8.682,44.546 8.272,43.908 48.223,18.284 48.633,18.923 8.682,44.546 		"/>
	</defs>
	<clipPath id="SVGID_148_">
		<use xlink:href="#SVGID_147_"  overflow="visible"/>
	</clipPath>
	<g clip-path="url(#SVGID_148_)">
		<defs>
			<rect id="SVGID_149_" x="-135.274" y="-908.47" width="1440" height="4420"/>
		</defs>
		<clipPath id="SVGID_150_">
			<use xlink:href="#SVGID_149_"  overflow="visible"/>
		</clipPath>
		<rect x="3.272" y="13.284" clip-path="url(#SVGID_150_)" fill="#E5CF46" width="50.36" height="36.262"/>
	</g>
</g>
<g>
	<defs>
		<polyline id="SVGID_151_" points="48.303,44.426 8.197,19.047 8.603,18.406 48.708,43.784 48.303,44.426 		"/>
	</defs>
	<clipPath id="SVGID_152_">
		<use xlink:href="#SVGID_151_"  overflow="visible"/>
	</clipPath>
	<g clip-path="url(#SVGID_152_)">
		<defs>
			<rect id="SVGID_153_" x="-135.274" y="-908.47" width="1440" height="4420"/>
		</defs>
		<clipPath id="SVGID_154_">
			<use xlink:href="#SVGID_153_"  overflow="visible"/>
		</clipPath>
		<rect x="3.197" y="13.406" clip-path="url(#SVGID_154_)" fill="#2B273C" width="50.512" height="36.02"/>
	</g>
</g>
<g>
	<defs>
		<polyline id="SVGID_155_" points="47.093,46.106 9.352,17.328 9.812,16.726 47.554,45.503 47.093,46.106 		"/>
	</defs>
	<clipPath id="SVGID_156_">
		<use xlink:href="#SVGID_155_"  overflow="visible"/>
	</clipPath>
	<g clip-path="url(#SVGID_156_)">
		<defs>
			<rect id="SVGID_157_" x="-135.274" y="-908.47" width="1440" height="4420"/>
		</defs>
		<clipPath id="SVGID_158_">
			<use xlink:href="#SVGID_157_"  overflow="visible"/>
		</clipPath>
		<rect x="4.352" y="11.725" clip-path="url(#SVGID_158_)" fill="#B95537" width="48.202" height="39.381"/>
	</g>
</g>
<g>
	<defs>
		<polyline id="SVGID_159_" points="45.742,47.675 10.652,15.717 11.163,15.156 46.253,47.114 45.742,47.675 		"/>
	</defs>
	<clipPath id="SVGID_160_">
		<use xlink:href="#SVGID_159_"  overflow="visible"/>
	</clipPath>
	<g clip-path="url(#SVGID_160_)">
		<defs>
			<rect id="SVGID_161_" x="-135.274" y="-908.47" width="1440" height="4420"/>
		</defs>
		<clipPath id="SVGID_162_">
			<use xlink:href="#SVGID_161_"  overflow="visible"/>
		</clipPath>
		<rect x="5.652" y="10.157" clip-path="url(#SVGID_162_)" fill="#AD314D" width="45.601" height="42.518"/>
	</g>
</g>
<g>
	<defs>
		<polyline id="SVGID_163_" points="44.26,49.12 12.088,14.226 12.646,13.711 44.817,48.606 44.26,49.12 		"/>
	</defs>
	<clipPath id="SVGID_164_">
		<use xlink:href="#SVGID_163_"  overflow="visible"/>
	</clipPath>
	<g clip-path="url(#SVGID_164_)">
		<defs>
			<rect id="SVGID_165_" x="-135.274" y="-908.47" width="1440" height="4420"/>
		</defs>
		<clipPath id="SVGID_166_">
			<use xlink:href="#SVGID_165_"  overflow="visible"/>
		</clipPath>
		<rect x="7.088" y="8.712" clip-path="url(#SVGID_166_)" fill="#7C5388" width="42.729" height="45.408"/>
	</g>
</g>
<g>
	<defs>
		<polyline id="SVGID_167_" points="42.656,50.43 13.648,12.865 14.249,12.401 43.257,49.966 42.656,50.43 		"/>
	</defs>
	<clipPath id="SVGID_168_">
		<use xlink:href="#SVGID_167_"  overflow="visible"/>
	</clipPath>
	<g clip-path="url(#SVGID_168_)">
		<defs>
			<rect id="SVGID_169_" x="-135.274" y="-908.47" width="1440" height="4420"/>
		</defs>
		<clipPath id="SVGID_170_">
			<use xlink:href="#SVGID_169_"  overflow="visible"/>
		</clipPath>
		<rect x="8.648" y="7.401" clip-path="url(#SVGID_170_)" fill="#883E7B" width="39.608" height="48.029"/>
	</g>
</g>
<g>
	<defs>
		<polyline id="SVGID_171_" points="40.945,51.596 15.322,11.646 15.96,11.235 41.583,51.187 40.945,51.596 		"/>
	</defs>
	<clipPath id="SVGID_172_">
		<use xlink:href="#SVGID_171_"  overflow="visible"/>
	</clipPath>
	<g clip-path="url(#SVGID_172_)">
		<defs>
			<rect id="SVGID_173_" x="-135.274" y="-908.47" width="1440" height="4420"/>
		</defs>
		<clipPath id="SVGID_174_">
			<use xlink:href="#SVGID_173_"  overflow="visible"/>
		</clipPath>
		<rect x="10.322" y="6.236" clip-path="url(#SVGID_174_)" fill="#E5CF46" width="36.262" height="50.36"/>
	</g>
</g>
<g>
	<defs>
		<polyline id="SVGID_175_" points="5.384,36.993 5.217,36.252 51.522,25.838 51.688,26.578 5.384,36.993 		"/>
	</defs>
	<clipPath id="SVGID_176_">
		<use xlink:href="#SVGID_175_"  overflow="visible"/>
	</clipPath>
	<g clip-path="url(#SVGID_176_)">
		<defs>
			<rect id="SVGID_177_" x="-135.274" y="-908.47" width="1440" height="4420"/>
		</defs>
		<clipPath id="SVGID_178_">
			<use xlink:href="#SVGID_177_"  overflow="visible"/>
		</clipPath>
		<rect x="0.217" y="20.839" clip-path="url(#SVGID_178_)" fill="#2B273C" width="56.472" height="21.154"/>
	</g>
</g>
<g>
	<defs>
		<polyline id="SVGID_179_" points="4.985,34.961 4.884,34.209 51.92,27.87 52.021,28.622 4.985,34.961 		"/>
	</defs>
	<clipPath id="SVGID_180_">
		<use xlink:href="#SVGID_179_"  overflow="visible"/>
	</clipPath>
	<g clip-path="url(#SVGID_180_)">
		<defs>
			<rect id="SVGID_181_" x="-135.274" y="-908.47" width="1440" height="4420"/>
		</defs>
		<clipPath id="SVGID_182_">
			<use xlink:href="#SVGID_181_"  overflow="visible"/>
		</clipPath>
		<rect x="-0.116" y="22.871" clip-path="url(#SVGID_182_)" fill="#B95537" width="57.138" height="17.09"/>
	</g>
</g>
<g>
	<defs>
		<polyline id="SVGID_183_" points="4.765,32.902 4.73,32.145 52.14,29.929 52.175,30.688 4.765,32.902 		"/>
	</defs>
	<clipPath id="SVGID_184_">
		<use xlink:href="#SVGID_183_"  overflow="visible"/>
	</clipPath>
	<g clip-path="url(#SVGID_184_)">
		<defs>
			<rect id="SVGID_185_" x="-135.274" y="-908.47" width="1440" height="4420"/>
		</defs>
		<clipPath id="SVGID_186_">
			<use xlink:href="#SVGID_185_"  overflow="visible"/>
		</clipPath>
		<rect x="-0.27" y="24.93" clip-path="url(#SVGID_186_)" fill="#AD314D" width="57.445" height="12.973"/>
	</g>
</g>
<g>
	<defs>
		<polyline id="SVGID_187_" points="52.148,32.757 4.726,30.832 4.757,30.074 52.179,31.999 52.148,32.757 		"/>
	</defs>
	<clipPath id="SVGID_188_">
		<use xlink:href="#SVGID_187_"  overflow="visible"/>
	</clipPath>
	<g clip-path="url(#SVGID_188_)">
		<defs>
			<rect id="SVGID_189_" x="-135.274" y="-908.47" width="1440" height="4420"/>
		</defs>
		<clipPath id="SVGID_190_">
			<use xlink:href="#SVGID_189_"  overflow="visible"/>
		</clipPath>
		<rect x="-0.274" y="25.074" clip-path="url(#SVGID_190_)" fill="#7C5388" width="57.453" height="12.684"/>
	</g>
</g>
<g>
	<defs>
		<polyline id="SVGID_191_" points="51.941,34.817 4.867,28.767 4.964,28.014 52.038,34.065 51.941,34.817 		"/>
	</defs>
	<clipPath id="SVGID_192_">
		<use xlink:href="#SVGID_191_"  overflow="visible"/>
	</clipPath>
	<g clip-path="url(#SVGID_192_)">
		<defs>
			<rect id="SVGID_193_" x="-135.274" y="-908.47" width="1440" height="4420"/>
		</defs>
		<clipPath id="SVGID_194_">
			<use xlink:href="#SVGID_193_"  overflow="visible"/>
		</clipPath>
		<rect x="-0.133" y="23.014" clip-path="url(#SVGID_194_)" fill="#883E7B" width="57.171" height="16.804"/>
	</g>
</g>
<g>
	<defs>
		<polyline id="SVGID_195_" points="51.556,36.853 5.188,26.721 5.35,25.979 51.718,36.11 51.556,36.853 		"/>
	</defs>
	<clipPath id="SVGID_196_">
		<use xlink:href="#SVGID_195_"  overflow="visible"/>
	</clipPath>
	<g clip-path="url(#SVGID_196_)">
		<defs>
			<rect id="SVGID_197_" x="-135.274" y="-908.47" width="1440" height="4420"/>
		</defs>
		<clipPath id="SVGID_198_">
			<use xlink:href="#SVGID_197_"  overflow="visible"/>
		</clipPath>
		<rect x="0.188" y="20.98" clip-path="url(#SVGID_198_)" fill="#E5CF46" width="56.53" height="20.873"/>
	</g>
</g>
</svg>
